<svg width="80" height="80" viewBox="0 0 80 80" fill="none" xmlns="http://www.w3.org/2000/svg">
<g filter="url(#filter0_d_4_1784)">
<rect x="4" width="72" height="72" rx="16" fill="white"/>
</g>
<path d="M25.2832 28.4L39.9999 36.9167L54.6165 28.45" stroke="#0052CC" stroke-width="2.5" stroke-linecap="round" stroke-linejoin="round"/>
<path d="M40 52.0166V36.9" stroke="#0052CC" stroke-width="2.5" stroke-linecap="round" stroke-linejoin="round"/>
<path d="M36.5498 20.1333L27.6498 25.0666C25.6332 26.1833 23.9832 28.9833 23.9832 31.2833V40.7C23.9832 43 25.6332 45.8 27.6498 46.9166L36.5498 51.8666C38.4498 52.9166 41.5665 52.9166 43.4665 51.8666L52.3665 46.9166C54.3832 45.8 56.0332 43 56.0332 40.7V31.2833C56.0332 28.9833 54.3832 26.1833 52.3665 25.0666L43.4665 20.1166C41.5498 19.0666 38.4498 19.0666 36.5498 20.1333Z" stroke="#0052CC" stroke-width="2.5" stroke-linecap="round" stroke-linejoin="round"/>
<defs>
<filter id="filter0_d_4_1784" x="0" y="0" width="80" height="80" filterUnits="userSpaceOnUse" color-interpolation-filters="sRGB">
<feFlood flood-opacity="0" result="BackgroundImageFix"/>
<feColorMatrix in="SourceAlpha" type="matrix" values="0 0 0 0 0 0 0 0 0 0 0 0 0 0 0 0 0 0 127 0" result="hardAlpha"/>
<feOffset dy="4"/>
<feGaussianBlur stdDeviation="2"/>
<feComposite in2="hardAlpha" operator="out"/>
<feColorMatrix type="matrix" values="0 0 0 0 0 0 0 0 0 0 0 0 0 0 0 0 0 0 0.25 0"/>
<feBlend mode="normal" in2="BackgroundImageFix" result="effect1_dropShadow_4_1784"/>
<feBlend mode="normal" in="SourceGraphic" in2="effect1_dropShadow_4_1784" result="shape"/>
</filter>
</defs>
</svg>
